# xmcd CD database file
#
# Track frame offsets:
#	150
#	13847
#	30825
#	48287
#	58792
#	71935
#	93292
#	105742
#	125175
#	136020
#	156795
#	169305
#	186415
#	197830
#
# Disc length: 2824 seconds
#
# Revision: 0
# Processed by: cddbd v1.5.1PL2 Copyright (c) Steve Scherf et al.
# Submitted via: CDex 1.51
#
DISCID=c60b060e
DTITLE=Yosuke Yamashita - Canvas In Quiet
DYEAR=1996
DGENRE=Jazz
TTITLE0=Encounter '86
TTITLE1=Thought of Beatrice
TTITLE2=Brunetta
TTITLE3=Splashes on Palette
TTITLE4=Divertimento in F Minor
TTITLE5=Echo of Gray
TTITLE6=Scherzo in G Major
TTITLE7=After Blue
TTITLE8=Sunset Song
TTITLE9=Into Green
TTITLE10=Dancing in Yellow
TTITLE11=Chant on D
TTITLE12=Behind Red
TTITLE13=Lullaby in Bastia
EXTD=YEAR: 1996
EXTT0=
EXTT1=
EXTT2=
EXTT3=
EXTT4=
EXTT5=
EXTT6=
EXTT7=
EXTT8=
EXTT9=
EXTT10=
EXTT11=
EXTT12=
EXTT13=
PLAYORDER=
